G04 #@! TF.FileFunction,Copper,L1,Top,Signal*
%FSLAX46Y46*%
G04 Gerber Fmt 4.6, Leading zero omitted, Abs format (unit mm)*
G04 Created by KiCad (PCBNEW 4.0.4-stable) date 09/14/17 15:41:31*
%MOMM*%
%LPD*%
G01*
G04 APERTURE LIST*
%ADD10C,0.100000*%
%ADD11R,2.000000X2.000000*%
%ADD12R,0.700000X1.300000*%
%ADD13R,0.550000X1.750000*%
%ADD14C,0.600000*%
%ADD15C,0.250000*%
%ADD16C,0.254000*%
G04 APERTURE END LIST*
D10*
D11*
X118745000Y-59055000D03*
X122555000Y-59055000D03*
X114935000Y-70485000D03*
X111125000Y-70485000D03*
X111125000Y-66675000D03*
X111125000Y-59055000D03*
X114935000Y-59055000D03*
D12*
X114432000Y-62230000D03*
X116332000Y-62230000D03*
X116332000Y-67310000D03*
X114432000Y-67310000D03*
X114432000Y-64770000D03*
X116332000Y-64770000D03*
D13*
X118999000Y-69740000D03*
X120269000Y-69740000D03*
X121539000Y-69740000D03*
X122809000Y-69740000D03*
X122809000Y-62340000D03*
X121539000Y-62340000D03*
X120269000Y-62340000D03*
X118999000Y-62340000D03*
D14*
X120684900Y-66792500D03*
X114878400Y-60592300D03*
X122001500Y-63992500D03*
X119118200Y-68304600D03*
X110586000Y-68978500D03*
D15*
X114747002Y-63500000D02*
X114116998Y-63500000D01*
X114116998Y-63500000D02*
X111125000Y-60508002D01*
X115107001Y-64307001D02*
X115107001Y-63859999D01*
X115107001Y-63859999D02*
X114747002Y-63500000D01*
X115656700Y-64770000D02*
X115570000Y-64770000D01*
X115570000Y-64770000D02*
X115107001Y-64307001D01*
X111125000Y-60402800D02*
X111125000Y-59055000D01*
X116332000Y-64770000D02*
X115656700Y-64770000D01*
X122809000Y-69740000D02*
X122809000Y-68539700D01*
X119029800Y-66792500D02*
X117007300Y-64770000D01*
X120684900Y-66792500D02*
X119029800Y-66792500D01*
X121061800Y-66792500D02*
X120684900Y-66792500D01*
X122809000Y-68539700D02*
X121061800Y-66792500D01*
X116332000Y-64770000D02*
X117007300Y-64770000D01*
X118999000Y-62340000D02*
X118474000Y-62340000D01*
X118474000Y-62340000D02*
X116726300Y-60592300D01*
X116726300Y-60592300D02*
X115302664Y-60592300D01*
X115302664Y-60592300D02*
X114878400Y-60592300D01*
X114935000Y-60535700D02*
X114878400Y-60592300D01*
X114935000Y-59055000D02*
X114935000Y-60535700D01*
X115425800Y-61139700D02*
X114878400Y-60592300D01*
X121539000Y-69740000D02*
X121539000Y-70340000D01*
X121539000Y-70340000D02*
X120938700Y-70940300D01*
X120938700Y-70940300D02*
X116715600Y-70940300D01*
X116715600Y-70940300D02*
X116260300Y-70485000D01*
X114935000Y-70485000D02*
X116260300Y-70485000D01*
X122809000Y-60634300D02*
X122555000Y-60380300D01*
X122809000Y-62340000D02*
X122809000Y-60634300D01*
X122555000Y-59055000D02*
X122555000Y-60380300D01*
X118317600Y-63540300D02*
X120938700Y-63540300D01*
X120938700Y-63540300D02*
X121539000Y-62940000D01*
X121539000Y-62940000D02*
X121539000Y-62340000D01*
X118317600Y-63540300D02*
X117007300Y-62230000D01*
X116332000Y-62230000D02*
X117007300Y-62230000D01*
X118745000Y-59055000D02*
X119995000Y-59055000D01*
X119995000Y-59055000D02*
X120269000Y-59329000D01*
X120269000Y-59329000D02*
X120269000Y-61215000D01*
X120269000Y-61215000D02*
X120269000Y-62340000D01*
X114432000Y-62230000D02*
X114432000Y-62530000D01*
X117121800Y-63992500D02*
X122001500Y-63992500D01*
X114432000Y-62530000D02*
X115667400Y-63765400D01*
X115667400Y-63765400D02*
X116894700Y-63765400D01*
X116894700Y-63765400D02*
X117121800Y-63992500D01*
X112395000Y-66675000D02*
X113030000Y-67310000D01*
X113030000Y-67310000D02*
X114432000Y-67310000D01*
X111125000Y-66675000D02*
X112395000Y-66675000D01*
X114432000Y-64770000D02*
X114432000Y-66675000D01*
X114432000Y-66675000D02*
X114432000Y-67310000D01*
X116332000Y-67310000D02*
X117007300Y-67310000D01*
X118999000Y-69740000D02*
X118999000Y-68652300D01*
X118999000Y-68652300D02*
X118999000Y-68325000D01*
X118022300Y-68325000D02*
X117007300Y-67310000D01*
X118999000Y-68325000D02*
X118022300Y-68325000D01*
X119097800Y-68325000D02*
X119118200Y-68304600D01*
X118999000Y-68325000D02*
X119097800Y-68325000D01*
X111125000Y-70485000D02*
X111125000Y-69517500D01*
X111125000Y-69517500D02*
X110586000Y-68978500D01*
D16*
G36*
X124131000Y-72696000D02*
X109549000Y-72696000D01*
X109549000Y-69485000D01*
X109791594Y-69485000D01*
X109791594Y-71485000D01*
X109814395Y-71606179D01*
X109886012Y-71717474D01*
X109995286Y-71792138D01*
X110125000Y-71818406D01*
X112125000Y-71818406D01*
X112246179Y-71795605D01*
X112357474Y-71723988D01*
X112432138Y-71614714D01*
X112458406Y-71485000D01*
X112458406Y-69485000D01*
X113601594Y-69485000D01*
X113601594Y-71485000D01*
X113624395Y-71606179D01*
X113696012Y-71717474D01*
X113805286Y-71792138D01*
X113935000Y-71818406D01*
X115935000Y-71818406D01*
X116056179Y-71795605D01*
X116167474Y-71723988D01*
X116242138Y-71614714D01*
X116268406Y-71485000D01*
X116268406Y-71132331D01*
X116395987Y-71259912D01*
X116542627Y-71357894D01*
X116715600Y-71392300D01*
X120938700Y-71392300D01*
X121111673Y-71357894D01*
X121258312Y-71259912D01*
X121569819Y-70948406D01*
X121814000Y-70948406D01*
X121935179Y-70925605D01*
X122046474Y-70853988D01*
X122121138Y-70744714D01*
X122147406Y-70615000D01*
X122147406Y-69962250D01*
X122153000Y-69962250D01*
X122153000Y-70690786D01*
X122211004Y-70830820D01*
X122318181Y-70937996D01*
X122458215Y-70996000D01*
X122586750Y-70996000D01*
X122682000Y-70900750D01*
X122682000Y-69867000D01*
X122936000Y-69867000D01*
X122936000Y-70900750D01*
X123031250Y-70996000D01*
X123159785Y-70996000D01*
X123299819Y-70937996D01*
X123406996Y-70830820D01*
X123465000Y-70690786D01*
X123465000Y-69962250D01*
X123369750Y-69867000D01*
X122936000Y-69867000D01*
X122682000Y-69867000D01*
X122248250Y-69867000D01*
X122153000Y-69962250D01*
X122147406Y-69962250D01*
X122147406Y-68865000D01*
X122133147Y-68789214D01*
X122153000Y-68789214D01*
X122153000Y-69517750D01*
X122248250Y-69613000D01*
X122682000Y-69613000D01*
X122682000Y-68579250D01*
X122936000Y-68579250D01*
X122936000Y-69613000D01*
X123369750Y-69613000D01*
X123465000Y-69517750D01*
X123465000Y-68789214D01*
X123406996Y-68649180D01*
X123299819Y-68542004D01*
X123159785Y-68484000D01*
X123031250Y-68484000D01*
X122936000Y-68579250D01*
X122682000Y-68579250D01*
X122586750Y-68484000D01*
X122458215Y-68484000D01*
X122318181Y-68542004D01*
X122211004Y-68649180D01*
X122153000Y-68789214D01*
X122133147Y-68789214D01*
X122124605Y-68743821D01*
X122052988Y-68632526D01*
X121943714Y-68557862D01*
X121814000Y-68531594D01*
X121264000Y-68531594D01*
X121142821Y-68554395D01*
X121031526Y-68626012D01*
X120956862Y-68735286D01*
X120930594Y-68865000D01*
X120930594Y-70309181D01*
X120877406Y-70362370D01*
X120877406Y-68865000D01*
X120854605Y-68743821D01*
X120782988Y-68632526D01*
X120673714Y-68557862D01*
X120544000Y-68531594D01*
X119994000Y-68531594D01*
X119872821Y-68554395D01*
X119761526Y-68626012D01*
X119686862Y-68735286D01*
X119660594Y-68865000D01*
X119660594Y-70488300D01*
X119607406Y-70488300D01*
X119607406Y-68865000D01*
X119584605Y-68743821D01*
X119577210Y-68732330D01*
X119649435Y-68660231D01*
X119745091Y-68429865D01*
X119745309Y-68180429D01*
X119650055Y-67949897D01*
X119473831Y-67773365D01*
X119243465Y-67677709D01*
X118994029Y-67677491D01*
X118763497Y-67772745D01*
X118663067Y-67873000D01*
X118209524Y-67873000D01*
X117326912Y-66990388D01*
X117180273Y-66892406D01*
X117015406Y-66859612D01*
X117015406Y-66660000D01*
X116992605Y-66538821D01*
X116920988Y-66427526D01*
X116811714Y-66352862D01*
X116682000Y-66326594D01*
X115982000Y-66326594D01*
X115860821Y-66349395D01*
X115749526Y-66421012D01*
X115674862Y-66530286D01*
X115648594Y-66660000D01*
X115648594Y-67960000D01*
X115671395Y-68081179D01*
X115743012Y-68192474D01*
X115852286Y-68267138D01*
X115982000Y-68293406D01*
X116682000Y-68293406D01*
X116803179Y-68270605D01*
X116914474Y-68198988D01*
X116989138Y-68089714D01*
X117015406Y-67960000D01*
X117015406Y-67957330D01*
X117702688Y-68644612D01*
X117849327Y-68742594D01*
X118022300Y-68777000D01*
X118408415Y-68777000D01*
X118390594Y-68865000D01*
X118390594Y-70488300D01*
X116902825Y-70488300D01*
X116579912Y-70165388D01*
X116433273Y-70067406D01*
X116268406Y-70034612D01*
X116268406Y-69485000D01*
X116245605Y-69363821D01*
X116173988Y-69252526D01*
X116064714Y-69177862D01*
X115935000Y-69151594D01*
X113935000Y-69151594D01*
X113813821Y-69174395D01*
X113702526Y-69246012D01*
X113627862Y-69355286D01*
X113601594Y-69485000D01*
X112458406Y-69485000D01*
X112435605Y-69363821D01*
X112363988Y-69252526D01*
X112254714Y-69177862D01*
X112125000Y-69151594D01*
X111398318Y-69151594D01*
X111213011Y-68966287D01*
X111213109Y-68854329D01*
X111117855Y-68623797D01*
X110941631Y-68447265D01*
X110711265Y-68351609D01*
X110461829Y-68351391D01*
X110231297Y-68446645D01*
X110054765Y-68622869D01*
X109959109Y-68853235D01*
X109958891Y-69102671D01*
X109991739Y-69182170D01*
X109892526Y-69246012D01*
X109817862Y-69355286D01*
X109791594Y-69485000D01*
X109549000Y-69485000D01*
X109549000Y-65675000D01*
X109791594Y-65675000D01*
X109791594Y-67675000D01*
X109814395Y-67796179D01*
X109886012Y-67907474D01*
X109995286Y-67982138D01*
X110125000Y-68008406D01*
X112125000Y-68008406D01*
X112246179Y-67985605D01*
X112357474Y-67913988D01*
X112432138Y-67804714D01*
X112458406Y-67675000D01*
X112458406Y-67377631D01*
X112710388Y-67629613D01*
X112857027Y-67727594D01*
X113030000Y-67762000D01*
X113748594Y-67762000D01*
X113748594Y-67960000D01*
X113771395Y-68081179D01*
X113843012Y-68192474D01*
X113952286Y-68267138D01*
X114082000Y-68293406D01*
X114782000Y-68293406D01*
X114903179Y-68270605D01*
X115014474Y-68198988D01*
X115089138Y-68089714D01*
X115115406Y-67960000D01*
X115115406Y-66660000D01*
X115092605Y-66538821D01*
X115020988Y-66427526D01*
X114911714Y-66352862D01*
X114884000Y-66347250D01*
X114884000Y-65734214D01*
X114903179Y-65730605D01*
X115014474Y-65658988D01*
X115089138Y-65549714D01*
X115115406Y-65420000D01*
X115115406Y-64992250D01*
X115601000Y-64992250D01*
X115601000Y-65495785D01*
X115659004Y-65635819D01*
X115766180Y-65742996D01*
X115906214Y-65801000D01*
X116109750Y-65801000D01*
X116205000Y-65705750D01*
X116205000Y-64897000D01*
X116459000Y-64897000D01*
X116459000Y-65705750D01*
X116554250Y-65801000D01*
X116757786Y-65801000D01*
X116897820Y-65742996D01*
X117004996Y-65635819D01*
X117063000Y-65495785D01*
X117063000Y-64992250D01*
X116967750Y-64897000D01*
X116459000Y-64897000D01*
X116205000Y-64897000D01*
X115696250Y-64897000D01*
X115601000Y-64992250D01*
X115115406Y-64992250D01*
X115115406Y-64120000D01*
X115092605Y-63998821D01*
X115020988Y-63887526D01*
X114911714Y-63812862D01*
X114782000Y-63786594D01*
X114082000Y-63786594D01*
X113960821Y-63809395D01*
X113849526Y-63881012D01*
X113774862Y-63990286D01*
X113748594Y-64120000D01*
X113748594Y-65420000D01*
X113771395Y-65541179D01*
X113843012Y-65652474D01*
X113952286Y-65727138D01*
X113980000Y-65732750D01*
X113980000Y-66345786D01*
X113960821Y-66349395D01*
X113849526Y-66421012D01*
X113774862Y-66530286D01*
X113748594Y-66660000D01*
X113748594Y-66858000D01*
X113217225Y-66858000D01*
X112714612Y-66355388D01*
X112567973Y-66257406D01*
X112458406Y-66235612D01*
X112458406Y-65675000D01*
X112435605Y-65553821D01*
X112363988Y-65442526D01*
X112254714Y-65367862D01*
X112125000Y-65341594D01*
X110125000Y-65341594D01*
X110003821Y-65364395D01*
X109892526Y-65436012D01*
X109817862Y-65545286D01*
X109791594Y-65675000D01*
X109549000Y-65675000D01*
X109549000Y-59277250D01*
X109744000Y-59277250D01*
X109744000Y-60130785D01*
X109802004Y-60270819D01*
X109909180Y-60377996D01*
X110049214Y-60436000D01*
X110902750Y-60436000D01*
X110998000Y-60340750D01*
X110998000Y-59182000D01*
X111252000Y-59182000D01*
X111252000Y-60340750D01*
X111347250Y-60436000D01*
X112200786Y-60436000D01*
X112340820Y-60377996D01*
X112447996Y-60270819D01*
X112506000Y-60130785D01*
X112506000Y-59277250D01*
X112410750Y-59182000D01*
X111252000Y-59182000D01*
X110998000Y-59182000D01*
X109839250Y-59182000D01*
X109744000Y-59277250D01*
X109549000Y-59277250D01*
X109549000Y-57979215D01*
X109744000Y-57979215D01*
X109744000Y-58832750D01*
X109839250Y-58928000D01*
X110998000Y-58928000D01*
X110998000Y-57769250D01*
X111252000Y-57769250D01*
X111252000Y-58928000D01*
X112410750Y-58928000D01*
X112506000Y-58832750D01*
X112506000Y-58055000D01*
X113601594Y-58055000D01*
X113601594Y-60055000D01*
X113624395Y-60176179D01*
X113696012Y-60287474D01*
X113805286Y-60362138D01*
X113935000Y-60388406D01*
X114284159Y-60388406D01*
X114251509Y-60467035D01*
X114251291Y-60716471D01*
X114346545Y-60947003D01*
X114522769Y-61123535D01*
X114753135Y-61219191D01*
X114866165Y-61219290D01*
X114937046Y-61290171D01*
X114911714Y-61272862D01*
X114782000Y-61246594D01*
X114082000Y-61246594D01*
X113960821Y-61269395D01*
X113849526Y-61341012D01*
X113774862Y-61450286D01*
X113748594Y-61580000D01*
X113748594Y-62880000D01*
X113771395Y-63001179D01*
X113843012Y-63112474D01*
X113952286Y-63187138D01*
X114082000Y-63213406D01*
X114476182Y-63213406D01*
X115347787Y-64085012D01*
X115468205Y-64165473D01*
X115494427Y-64182994D01*
X115601000Y-64204192D01*
X115601000Y-64547750D01*
X115696250Y-64643000D01*
X116205000Y-64643000D01*
X116205000Y-64623000D01*
X116459000Y-64623000D01*
X116459000Y-64643000D01*
X116967750Y-64643000D01*
X117063000Y-64547750D01*
X117063000Y-64432804D01*
X117121800Y-64444500D01*
X121566772Y-64444500D01*
X121645869Y-64523735D01*
X121876235Y-64619391D01*
X122125671Y-64619609D01*
X122356203Y-64524355D01*
X122532735Y-64348131D01*
X122628391Y-64117765D01*
X122628609Y-63868329D01*
X122533355Y-63637797D01*
X122421347Y-63525593D01*
X122534000Y-63548406D01*
X123084000Y-63548406D01*
X123205179Y-63525605D01*
X123316474Y-63453988D01*
X123391138Y-63344714D01*
X123417406Y-63215000D01*
X123417406Y-61465000D01*
X123394605Y-61343821D01*
X123322988Y-61232526D01*
X123261000Y-61190171D01*
X123261000Y-60634300D01*
X123226594Y-60461327D01*
X123177869Y-60388406D01*
X123555000Y-60388406D01*
X123676179Y-60365605D01*
X123787474Y-60293988D01*
X123862138Y-60184714D01*
X123888406Y-60055000D01*
X123888406Y-58055000D01*
X123865605Y-57933821D01*
X123793988Y-57822526D01*
X123684714Y-57747862D01*
X123555000Y-57721594D01*
X121555000Y-57721594D01*
X121433821Y-57744395D01*
X121322526Y-57816012D01*
X121247862Y-57925286D01*
X121221594Y-58055000D01*
X121221594Y-60055000D01*
X121244395Y-60176179D01*
X121316012Y-60287474D01*
X121425286Y-60362138D01*
X121555000Y-60388406D01*
X122104612Y-60388406D01*
X122137406Y-60553273D01*
X122235388Y-60699912D01*
X122357000Y-60821524D01*
X122357000Y-61190315D01*
X122301526Y-61226012D01*
X122226862Y-61335286D01*
X122200594Y-61465000D01*
X122200594Y-63215000D01*
X122223395Y-63336179D01*
X122284472Y-63431094D01*
X122126765Y-63365609D01*
X122106873Y-63365592D01*
X122121138Y-63344714D01*
X122147406Y-63215000D01*
X122147406Y-61465000D01*
X122124605Y-61343821D01*
X122052988Y-61232526D01*
X121943714Y-61157862D01*
X121814000Y-61131594D01*
X121264000Y-61131594D01*
X121142821Y-61154395D01*
X121031526Y-61226012D01*
X120956862Y-61335286D01*
X120930594Y-61465000D01*
X120930594Y-62909181D01*
X120877406Y-62962370D01*
X120877406Y-61465000D01*
X120854605Y-61343821D01*
X120782988Y-61232526D01*
X120721000Y-61190171D01*
X120721000Y-59329000D01*
X120686594Y-59156027D01*
X120588613Y-59009388D01*
X120314612Y-58735388D01*
X120167973Y-58637406D01*
X120078406Y-58619590D01*
X120078406Y-58055000D01*
X120055605Y-57933821D01*
X119983988Y-57822526D01*
X119874714Y-57747862D01*
X119745000Y-57721594D01*
X117745000Y-57721594D01*
X117623821Y-57744395D01*
X117512526Y-57816012D01*
X117437862Y-57925286D01*
X117411594Y-58055000D01*
X117411594Y-60055000D01*
X117434395Y-60176179D01*
X117506012Y-60287474D01*
X117615286Y-60362138D01*
X117745000Y-60388406D01*
X119745000Y-60388406D01*
X119817000Y-60374859D01*
X119817000Y-61190315D01*
X119761526Y-61226012D01*
X119686862Y-61335286D01*
X119660594Y-61465000D01*
X119660594Y-63088300D01*
X119607406Y-63088300D01*
X119607406Y-61465000D01*
X119584605Y-61343821D01*
X119512988Y-61232526D01*
X119403714Y-61157862D01*
X119274000Y-61131594D01*
X118724000Y-61131594D01*
X118602821Y-61154395D01*
X118491526Y-61226012D01*
X118416862Y-61335286D01*
X118390594Y-61465000D01*
X118390594Y-61617370D01*
X117045912Y-60272688D01*
X116899273Y-60174706D01*
X116726300Y-60140300D01*
X116251132Y-60140300D01*
X116268406Y-60055000D01*
X116268406Y-58055000D01*
X116245605Y-57933821D01*
X116173988Y-57822526D01*
X116064714Y-57747862D01*
X115935000Y-57721594D01*
X113935000Y-57721594D01*
X113813821Y-57744395D01*
X113702526Y-57816012D01*
X113627862Y-57925286D01*
X113601594Y-58055000D01*
X112506000Y-58055000D01*
X112506000Y-57979215D01*
X112447996Y-57839181D01*
X112340820Y-57732004D01*
X112200786Y-57674000D01*
X111347250Y-57674000D01*
X111252000Y-57769250D01*
X110998000Y-57769250D01*
X110902750Y-57674000D01*
X110049214Y-57674000D01*
X109909180Y-57732004D01*
X109802004Y-57839181D01*
X109744000Y-57979215D01*
X109549000Y-57979215D01*
X109549000Y-56844000D01*
X124131000Y-56844000D01*
X124131000Y-72696000D01*
X124131000Y-72696000D01*
G37*
X124131000Y-72696000D02*
X109549000Y-72696000D01*
X109549000Y-69485000D01*
X109791594Y-69485000D01*
X109791594Y-71485000D01*
X109814395Y-71606179D01*
X109886012Y-71717474D01*
X109995286Y-71792138D01*
X110125000Y-71818406D01*
X112125000Y-71818406D01*
X112246179Y-71795605D01*
X112357474Y-71723988D01*
X112432138Y-71614714D01*
X112458406Y-71485000D01*
X112458406Y-69485000D01*
X113601594Y-69485000D01*
X113601594Y-71485000D01*
X113624395Y-71606179D01*
X113696012Y-71717474D01*
X113805286Y-71792138D01*
X113935000Y-71818406D01*
X115935000Y-71818406D01*
X116056179Y-71795605D01*
X116167474Y-71723988D01*
X116242138Y-71614714D01*
X116268406Y-71485000D01*
X116268406Y-71132331D01*
X116395987Y-71259912D01*
X116542627Y-71357894D01*
X116715600Y-71392300D01*
X120938700Y-71392300D01*
X121111673Y-71357894D01*
X121258312Y-71259912D01*
X121569819Y-70948406D01*
X121814000Y-70948406D01*
X121935179Y-70925605D01*
X122046474Y-70853988D01*
X122121138Y-70744714D01*
X122147406Y-70615000D01*
X122147406Y-69962250D01*
X122153000Y-69962250D01*
X122153000Y-70690786D01*
X122211004Y-70830820D01*
X122318181Y-70937996D01*
X122458215Y-70996000D01*
X122586750Y-70996000D01*
X122682000Y-70900750D01*
X122682000Y-69867000D01*
X122936000Y-69867000D01*
X122936000Y-70900750D01*
X123031250Y-70996000D01*
X123159785Y-70996000D01*
X123299819Y-70937996D01*
X123406996Y-70830820D01*
X123465000Y-70690786D01*
X123465000Y-69962250D01*
X123369750Y-69867000D01*
X122936000Y-69867000D01*
X122682000Y-69867000D01*
X122248250Y-69867000D01*
X122153000Y-69962250D01*
X122147406Y-69962250D01*
X122147406Y-68865000D01*
X122133147Y-68789214D01*
X122153000Y-68789214D01*
X122153000Y-69517750D01*
X122248250Y-69613000D01*
X122682000Y-69613000D01*
X122682000Y-68579250D01*
X122936000Y-68579250D01*
X122936000Y-69613000D01*
X123369750Y-69613000D01*
X123465000Y-69517750D01*
X123465000Y-68789214D01*
X123406996Y-68649180D01*
X123299819Y-68542004D01*
X123159785Y-68484000D01*
X123031250Y-68484000D01*
X122936000Y-68579250D01*
X122682000Y-68579250D01*
X122586750Y-68484000D01*
X122458215Y-68484000D01*
X122318181Y-68542004D01*
X122211004Y-68649180D01*
X122153000Y-68789214D01*
X122133147Y-68789214D01*
X122124605Y-68743821D01*
X122052988Y-68632526D01*
X121943714Y-68557862D01*
X121814000Y-68531594D01*
X121264000Y-68531594D01*
X121142821Y-68554395D01*
X121031526Y-68626012D01*
X120956862Y-68735286D01*
X120930594Y-68865000D01*
X120930594Y-70309181D01*
X120877406Y-70362370D01*
X120877406Y-68865000D01*
X120854605Y-68743821D01*
X120782988Y-68632526D01*
X120673714Y-68557862D01*
X120544000Y-68531594D01*
X119994000Y-68531594D01*
X119872821Y-68554395D01*
X119761526Y-68626012D01*
X119686862Y-68735286D01*
X119660594Y-68865000D01*
X119660594Y-70488300D01*
X119607406Y-70488300D01*
X119607406Y-68865000D01*
X119584605Y-68743821D01*
X119577210Y-68732330D01*
X119649435Y-68660231D01*
X119745091Y-68429865D01*
X119745309Y-68180429D01*
X119650055Y-67949897D01*
X119473831Y-67773365D01*
X119243465Y-67677709D01*
X118994029Y-67677491D01*
X118763497Y-67772745D01*
X118663067Y-67873000D01*
X118209524Y-67873000D01*
X117326912Y-66990388D01*
X117180273Y-66892406D01*
X117015406Y-66859612D01*
X117015406Y-66660000D01*
X116992605Y-66538821D01*
X116920988Y-66427526D01*
X116811714Y-66352862D01*
X116682000Y-66326594D01*
X115982000Y-66326594D01*
X115860821Y-66349395D01*
X115749526Y-66421012D01*
X115674862Y-66530286D01*
X115648594Y-66660000D01*
X115648594Y-67960000D01*
X115671395Y-68081179D01*
X115743012Y-68192474D01*
X115852286Y-68267138D01*
X115982000Y-68293406D01*
X116682000Y-68293406D01*
X116803179Y-68270605D01*
X116914474Y-68198988D01*
X116989138Y-68089714D01*
X117015406Y-67960000D01*
X117015406Y-67957330D01*
X117702688Y-68644612D01*
X117849327Y-68742594D01*
X118022300Y-68777000D01*
X118408415Y-68777000D01*
X118390594Y-68865000D01*
X118390594Y-70488300D01*
X116902825Y-70488300D01*
X116579912Y-70165388D01*
X116433273Y-70067406D01*
X116268406Y-70034612D01*
X116268406Y-69485000D01*
X116245605Y-69363821D01*
X116173988Y-69252526D01*
X116064714Y-69177862D01*
X115935000Y-69151594D01*
X113935000Y-69151594D01*
X113813821Y-69174395D01*
X113702526Y-69246012D01*
X113627862Y-69355286D01*
X113601594Y-69485000D01*
X112458406Y-69485000D01*
X112435605Y-69363821D01*
X112363988Y-69252526D01*
X112254714Y-69177862D01*
X112125000Y-69151594D01*
X111398318Y-69151594D01*
X111213011Y-68966287D01*
X111213109Y-68854329D01*
X111117855Y-68623797D01*
X110941631Y-68447265D01*
X110711265Y-68351609D01*
X110461829Y-68351391D01*
X110231297Y-68446645D01*
X110054765Y-68622869D01*
X109959109Y-68853235D01*
X109958891Y-69102671D01*
X109991739Y-69182170D01*
X109892526Y-69246012D01*
X109817862Y-69355286D01*
X109791594Y-69485000D01*
X109549000Y-69485000D01*
X109549000Y-65675000D01*
X109791594Y-65675000D01*
X109791594Y-67675000D01*
X109814395Y-67796179D01*
X109886012Y-67907474D01*
X109995286Y-67982138D01*
X110125000Y-68008406D01*
X112125000Y-68008406D01*
X112246179Y-67985605D01*
X112357474Y-67913988D01*
X112432138Y-67804714D01*
X112458406Y-67675000D01*
X112458406Y-67377631D01*
X112710388Y-67629613D01*
X112857027Y-67727594D01*
X113030000Y-67762000D01*
X113748594Y-67762000D01*
X113748594Y-67960000D01*
X113771395Y-68081179D01*
X113843012Y-68192474D01*
X113952286Y-68267138D01*
X114082000Y-68293406D01*
X114782000Y-68293406D01*
X114903179Y-68270605D01*
X115014474Y-68198988D01*
X115089138Y-68089714D01*
X115115406Y-67960000D01*
X115115406Y-66660000D01*
X115092605Y-66538821D01*
X115020988Y-66427526D01*
X114911714Y-66352862D01*
X114884000Y-66347250D01*
X114884000Y-65734214D01*
X114903179Y-65730605D01*
X115014474Y-65658988D01*
X115089138Y-65549714D01*
X115115406Y-65420000D01*
X115115406Y-64992250D01*
X115601000Y-64992250D01*
X115601000Y-65495785D01*
X115659004Y-65635819D01*
X115766180Y-65742996D01*
X115906214Y-65801000D01*
X116109750Y-65801000D01*
X116205000Y-65705750D01*
X116205000Y-64897000D01*
X116459000Y-64897000D01*
X116459000Y-65705750D01*
X116554250Y-65801000D01*
X116757786Y-65801000D01*
X116897820Y-65742996D01*
X117004996Y-65635819D01*
X117063000Y-65495785D01*
X117063000Y-64992250D01*
X116967750Y-64897000D01*
X116459000Y-64897000D01*
X116205000Y-64897000D01*
X115696250Y-64897000D01*
X115601000Y-64992250D01*
X115115406Y-64992250D01*
X115115406Y-64120000D01*
X115092605Y-63998821D01*
X115020988Y-63887526D01*
X114911714Y-63812862D01*
X114782000Y-63786594D01*
X114082000Y-63786594D01*
X113960821Y-63809395D01*
X113849526Y-63881012D01*
X113774862Y-63990286D01*
X113748594Y-64120000D01*
X113748594Y-65420000D01*
X113771395Y-65541179D01*
X113843012Y-65652474D01*
X113952286Y-65727138D01*
X113980000Y-65732750D01*
X113980000Y-66345786D01*
X113960821Y-66349395D01*
X113849526Y-66421012D01*
X113774862Y-66530286D01*
X113748594Y-66660000D01*
X113748594Y-66858000D01*
X113217225Y-66858000D01*
X112714612Y-66355388D01*
X112567973Y-66257406D01*
X112458406Y-66235612D01*
X112458406Y-65675000D01*
X112435605Y-65553821D01*
X112363988Y-65442526D01*
X112254714Y-65367862D01*
X112125000Y-65341594D01*
X110125000Y-65341594D01*
X110003821Y-65364395D01*
X109892526Y-65436012D01*
X109817862Y-65545286D01*
X109791594Y-65675000D01*
X109549000Y-65675000D01*
X109549000Y-59277250D01*
X109744000Y-59277250D01*
X109744000Y-60130785D01*
X109802004Y-60270819D01*
X109909180Y-60377996D01*
X110049214Y-60436000D01*
X110902750Y-60436000D01*
X110998000Y-60340750D01*
X110998000Y-59182000D01*
X111252000Y-59182000D01*
X111252000Y-60340750D01*
X111347250Y-60436000D01*
X112200786Y-60436000D01*
X112340820Y-60377996D01*
X112447996Y-60270819D01*
X112506000Y-60130785D01*
X112506000Y-59277250D01*
X112410750Y-59182000D01*
X111252000Y-59182000D01*
X110998000Y-59182000D01*
X109839250Y-59182000D01*
X109744000Y-59277250D01*
X109549000Y-59277250D01*
X109549000Y-57979215D01*
X109744000Y-57979215D01*
X109744000Y-58832750D01*
X109839250Y-58928000D01*
X110998000Y-58928000D01*
X110998000Y-57769250D01*
X111252000Y-57769250D01*
X111252000Y-58928000D01*
X112410750Y-58928000D01*
X112506000Y-58832750D01*
X112506000Y-58055000D01*
X113601594Y-58055000D01*
X113601594Y-60055000D01*
X113624395Y-60176179D01*
X113696012Y-60287474D01*
X113805286Y-60362138D01*
X113935000Y-60388406D01*
X114284159Y-60388406D01*
X114251509Y-60467035D01*
X114251291Y-60716471D01*
X114346545Y-60947003D01*
X114522769Y-61123535D01*
X114753135Y-61219191D01*
X114866165Y-61219290D01*
X114937046Y-61290171D01*
X114911714Y-61272862D01*
X114782000Y-61246594D01*
X114082000Y-61246594D01*
X113960821Y-61269395D01*
X113849526Y-61341012D01*
X113774862Y-61450286D01*
X113748594Y-61580000D01*
X113748594Y-62880000D01*
X113771395Y-63001179D01*
X113843012Y-63112474D01*
X113952286Y-63187138D01*
X114082000Y-63213406D01*
X114476182Y-63213406D01*
X115347787Y-64085012D01*
X115468205Y-64165473D01*
X115494427Y-64182994D01*
X115601000Y-64204192D01*
X115601000Y-64547750D01*
X115696250Y-64643000D01*
X116205000Y-64643000D01*
X116205000Y-64623000D01*
X116459000Y-64623000D01*
X116459000Y-64643000D01*
X116967750Y-64643000D01*
X117063000Y-64547750D01*
X117063000Y-64432804D01*
X117121800Y-64444500D01*
X121566772Y-64444500D01*
X121645869Y-64523735D01*
X121876235Y-64619391D01*
X122125671Y-64619609D01*
X122356203Y-64524355D01*
X122532735Y-64348131D01*
X122628391Y-64117765D01*
X122628609Y-63868329D01*
X122533355Y-63637797D01*
X122421347Y-63525593D01*
X122534000Y-63548406D01*
X123084000Y-63548406D01*
X123205179Y-63525605D01*
X123316474Y-63453988D01*
X123391138Y-63344714D01*
X123417406Y-63215000D01*
X123417406Y-61465000D01*
X123394605Y-61343821D01*
X123322988Y-61232526D01*
X123261000Y-61190171D01*
X123261000Y-60634300D01*
X123226594Y-60461327D01*
X123177869Y-60388406D01*
X123555000Y-60388406D01*
X123676179Y-60365605D01*
X123787474Y-60293988D01*
X123862138Y-60184714D01*
X123888406Y-60055000D01*
X123888406Y-58055000D01*
X123865605Y-57933821D01*
X123793988Y-57822526D01*
X123684714Y-57747862D01*
X123555000Y-57721594D01*
X121555000Y-57721594D01*
X121433821Y-57744395D01*
X121322526Y-57816012D01*
X121247862Y-57925286D01*
X121221594Y-58055000D01*
X121221594Y-60055000D01*
X121244395Y-60176179D01*
X121316012Y-60287474D01*
X121425286Y-60362138D01*
X121555000Y-60388406D01*
X122104612Y-60388406D01*
X122137406Y-60553273D01*
X122235388Y-60699912D01*
X122357000Y-60821524D01*
X122357000Y-61190315D01*
X122301526Y-61226012D01*
X122226862Y-61335286D01*
X122200594Y-61465000D01*
X122200594Y-63215000D01*
X122223395Y-63336179D01*
X122284472Y-63431094D01*
X122126765Y-63365609D01*
X122106873Y-63365592D01*
X122121138Y-63344714D01*
X122147406Y-63215000D01*
X122147406Y-61465000D01*
X122124605Y-61343821D01*
X122052988Y-61232526D01*
X121943714Y-61157862D01*
X121814000Y-61131594D01*
X121264000Y-61131594D01*
X121142821Y-61154395D01*
X121031526Y-61226012D01*
X120956862Y-61335286D01*
X120930594Y-61465000D01*
X120930594Y-62909181D01*
X120877406Y-62962370D01*
X120877406Y-61465000D01*
X120854605Y-61343821D01*
X120782988Y-61232526D01*
X120721000Y-61190171D01*
X120721000Y-59329000D01*
X120686594Y-59156027D01*
X120588613Y-59009388D01*
X120314612Y-58735388D01*
X120167973Y-58637406D01*
X120078406Y-58619590D01*
X120078406Y-58055000D01*
X120055605Y-57933821D01*
X119983988Y-57822526D01*
X119874714Y-57747862D01*
X119745000Y-57721594D01*
X117745000Y-57721594D01*
X117623821Y-57744395D01*
X117512526Y-57816012D01*
X117437862Y-57925286D01*
X117411594Y-58055000D01*
X117411594Y-60055000D01*
X117434395Y-60176179D01*
X117506012Y-60287474D01*
X117615286Y-60362138D01*
X117745000Y-60388406D01*
X119745000Y-60388406D01*
X119817000Y-60374859D01*
X119817000Y-61190315D01*
X119761526Y-61226012D01*
X119686862Y-61335286D01*
X119660594Y-61465000D01*
X119660594Y-63088300D01*
X119607406Y-63088300D01*
X119607406Y-61465000D01*
X119584605Y-61343821D01*
X119512988Y-61232526D01*
X119403714Y-61157862D01*
X119274000Y-61131594D01*
X118724000Y-61131594D01*
X118602821Y-61154395D01*
X118491526Y-61226012D01*
X118416862Y-61335286D01*
X118390594Y-61465000D01*
X118390594Y-61617370D01*
X117045912Y-60272688D01*
X116899273Y-60174706D01*
X116726300Y-60140300D01*
X116251132Y-60140300D01*
X116268406Y-60055000D01*
X116268406Y-58055000D01*
X116245605Y-57933821D01*
X116173988Y-57822526D01*
X116064714Y-57747862D01*
X115935000Y-57721594D01*
X113935000Y-57721594D01*
X113813821Y-57744395D01*
X113702526Y-57816012D01*
X113627862Y-57925286D01*
X113601594Y-58055000D01*
X112506000Y-58055000D01*
X112506000Y-57979215D01*
X112447996Y-57839181D01*
X112340820Y-57732004D01*
X112200786Y-57674000D01*
X111347250Y-57674000D01*
X111252000Y-57769250D01*
X110998000Y-57769250D01*
X110902750Y-57674000D01*
X110049214Y-57674000D01*
X109909180Y-57732004D01*
X109802004Y-57839181D01*
X109744000Y-57979215D01*
X109549000Y-57979215D01*
X109549000Y-56844000D01*
X124131000Y-56844000D01*
X124131000Y-72696000D01*
M02*
