G04 #@! TF.FileFunction,Legend,Top*
%FSLAX46Y46*%
G04 Gerber Fmt 4.6, Leading zero omitted, Abs format (unit mm)*
G04 Created by KiCad (PCBNEW 4.0.4-stable) date 09/14/17 15:41:31*
%MOMM*%
%LPD*%
G01*
G04 APERTURE LIST*
%ADD10C,0.100000*%
%ADD11C,0.120000*%
%ADD12C,0.150000*%
G04 APERTURE END LIST*
D10*
X121738333Y-67626667D02*
X122105000Y-67160000D01*
X121738333Y-67160000D02*
X122105000Y-67626667D01*
X122705000Y-66926667D02*
X122371667Y-66926667D01*
X122338333Y-67260000D01*
X122371667Y-67226667D01*
X122438333Y-67193333D01*
X122605000Y-67193333D01*
X122671667Y-67226667D01*
X122705000Y-67260000D01*
X122738333Y-67326667D01*
X122738333Y-67493333D01*
X122705000Y-67560000D01*
X122671667Y-67593333D01*
X122605000Y-67626667D01*
X122438333Y-67626667D01*
X122371667Y-67593333D01*
X122338333Y-67560000D01*
X122938334Y-66926667D02*
X123171667Y-67626667D01*
X123405000Y-66926667D01*
D11*
X115982000Y-63110000D02*
X114782000Y-63110000D01*
X114782000Y-61350000D02*
X115982000Y-61350000D01*
X114782000Y-66430000D02*
X115982000Y-66430000D01*
X115982000Y-68190000D02*
X114782000Y-68190000D01*
X115982000Y-65650000D02*
X114782000Y-65650000D01*
X114782000Y-63890000D02*
X115982000Y-63890000D01*
D12*
X117699000Y-68790000D02*
X118354000Y-68790000D01*
X117699000Y-63290000D02*
X118449000Y-63290000D01*
X124109000Y-63290000D02*
X123359000Y-63290000D01*
X124109000Y-68790000D02*
X123359000Y-68790000D01*
X117699000Y-68790000D02*
X117699000Y-63290000D01*
X124109000Y-68790000D02*
X124109000Y-63290000D01*
X118354000Y-68790000D02*
X118354000Y-70540000D01*
D10*
X118461667Y-57354000D02*
X118561667Y-57387333D01*
X118595000Y-57420667D01*
X118628334Y-57487333D01*
X118628334Y-57587333D01*
X118595000Y-57654000D01*
X118561667Y-57687333D01*
X118495000Y-57720667D01*
X118228334Y-57720667D01*
X118228334Y-57020667D01*
X118461667Y-57020667D01*
X118528334Y-57054000D01*
X118561667Y-57087333D01*
X118595000Y-57154000D01*
X118595000Y-57220667D01*
X118561667Y-57287333D01*
X118528334Y-57320667D01*
X118461667Y-57354000D01*
X118228334Y-57354000D01*
X118895000Y-57087333D02*
X118928334Y-57054000D01*
X118995000Y-57020667D01*
X119161667Y-57020667D01*
X119228334Y-57054000D01*
X119261667Y-57087333D01*
X119295000Y-57154000D01*
X119295000Y-57220667D01*
X119261667Y-57320667D01*
X118861667Y-57720667D01*
X119295000Y-57720667D01*
X122335167Y-57354000D02*
X122435167Y-57387333D01*
X122468500Y-57420667D01*
X122501834Y-57487333D01*
X122501834Y-57587333D01*
X122468500Y-57654000D01*
X122435167Y-57687333D01*
X122368500Y-57720667D01*
X122101834Y-57720667D01*
X122101834Y-57020667D01*
X122335167Y-57020667D01*
X122401834Y-57054000D01*
X122435167Y-57087333D01*
X122468500Y-57154000D01*
X122468500Y-57220667D01*
X122435167Y-57287333D01*
X122401834Y-57320667D01*
X122335167Y-57354000D01*
X122101834Y-57354000D01*
X123168500Y-57720667D02*
X122768500Y-57720667D01*
X122968500Y-57720667D02*
X122968500Y-57020667D01*
X122901834Y-57120667D01*
X122835167Y-57187333D01*
X122768500Y-57220667D01*
X114651667Y-72086000D02*
X114751667Y-72119333D01*
X114785000Y-72152667D01*
X114818334Y-72219333D01*
X114818334Y-72319333D01*
X114785000Y-72386000D01*
X114751667Y-72419333D01*
X114685000Y-72452667D01*
X114418334Y-72452667D01*
X114418334Y-71752667D01*
X114651667Y-71752667D01*
X114718334Y-71786000D01*
X114751667Y-71819333D01*
X114785000Y-71886000D01*
X114785000Y-71952667D01*
X114751667Y-72019333D01*
X114718334Y-72052667D01*
X114651667Y-72086000D01*
X114418334Y-72086000D01*
X115051667Y-71752667D02*
X115485000Y-71752667D01*
X115251667Y-72019333D01*
X115351667Y-72019333D01*
X115418334Y-72052667D01*
X115451667Y-72086000D01*
X115485000Y-72152667D01*
X115485000Y-72319333D01*
X115451667Y-72386000D01*
X115418334Y-72419333D01*
X115351667Y-72452667D01*
X115151667Y-72452667D01*
X115085000Y-72419333D01*
X115051667Y-72386000D01*
X110521833Y-72086000D02*
X110621833Y-72119333D01*
X110655166Y-72152667D01*
X110688500Y-72219333D01*
X110688500Y-72319333D01*
X110655166Y-72386000D01*
X110621833Y-72419333D01*
X110555166Y-72452667D01*
X110288500Y-72452667D01*
X110288500Y-71752667D01*
X110521833Y-71752667D01*
X110588500Y-71786000D01*
X110621833Y-71819333D01*
X110655166Y-71886000D01*
X110655166Y-71952667D01*
X110621833Y-72019333D01*
X110588500Y-72052667D01*
X110521833Y-72086000D01*
X110288500Y-72086000D01*
X111321833Y-72452667D02*
X110988500Y-72452667D01*
X110988500Y-71752667D01*
X111555167Y-72186000D02*
X112088500Y-72186000D01*
X111821833Y-72452667D02*
X111821833Y-71919333D01*
X110458333Y-68276000D02*
X110558333Y-68309333D01*
X110591666Y-68342667D01*
X110625000Y-68409333D01*
X110625000Y-68509333D01*
X110591666Y-68576000D01*
X110558333Y-68609333D01*
X110491666Y-68642667D01*
X110225000Y-68642667D01*
X110225000Y-67942667D01*
X110458333Y-67942667D01*
X110525000Y-67976000D01*
X110558333Y-68009333D01*
X110591666Y-68076000D01*
X110591666Y-68142667D01*
X110558333Y-68209333D01*
X110525000Y-68242667D01*
X110458333Y-68276000D01*
X110225000Y-68276000D01*
X111258333Y-68642667D02*
X110925000Y-68642667D01*
X110925000Y-67942667D01*
X111491667Y-68376000D02*
X112025000Y-68376000D01*
X110718667Y-57054000D02*
X110652001Y-57020667D01*
X110552001Y-57020667D01*
X110452001Y-57054000D01*
X110385334Y-57120667D01*
X110352001Y-57187333D01*
X110318667Y-57320667D01*
X110318667Y-57420667D01*
X110352001Y-57554000D01*
X110385334Y-57620667D01*
X110452001Y-57687333D01*
X110552001Y-57720667D01*
X110618667Y-57720667D01*
X110718667Y-57687333D01*
X110752001Y-57654000D01*
X110752001Y-57420667D01*
X110618667Y-57420667D01*
X111052001Y-57720667D02*
X111052001Y-57020667D01*
X111452001Y-57720667D01*
X111452001Y-57020667D01*
X111785334Y-57720667D02*
X111785334Y-57020667D01*
X111952000Y-57020667D01*
X112052000Y-57054000D01*
X112118667Y-57120667D01*
X112152000Y-57187333D01*
X112185334Y-57320667D01*
X112185334Y-57420667D01*
X112152000Y-57554000D01*
X112118667Y-57620667D01*
X112052000Y-57687333D01*
X111952000Y-57720667D01*
X111785334Y-57720667D01*
X114065167Y-57020667D02*
X114298500Y-57720667D01*
X114531833Y-57020667D01*
X115165167Y-57654000D02*
X115131833Y-57687333D01*
X115031833Y-57720667D01*
X114965167Y-57720667D01*
X114865167Y-57687333D01*
X114798500Y-57620667D01*
X114765167Y-57554000D01*
X114731833Y-57420667D01*
X114731833Y-57320667D01*
X114765167Y-57187333D01*
X114798500Y-57120667D01*
X114865167Y-57054000D01*
X114965167Y-57020667D01*
X115031833Y-57020667D01*
X115131833Y-57054000D01*
X115165167Y-57087333D01*
X115865167Y-57654000D02*
X115831833Y-57687333D01*
X115731833Y-57720667D01*
X115665167Y-57720667D01*
X115565167Y-57687333D01*
X115498500Y-57620667D01*
X115465167Y-57554000D01*
X115431833Y-57420667D01*
X115431833Y-57320667D01*
X115465167Y-57187333D01*
X115498500Y-57120667D01*
X115565167Y-57054000D01*
X115665167Y-57020667D01*
X115731833Y-57020667D01*
X115831833Y-57054000D01*
X115865167Y-57087333D01*
X112913334Y-62546667D02*
X112680000Y-62213333D01*
X112513334Y-62546667D02*
X112513334Y-61846667D01*
X112780000Y-61846667D01*
X112846667Y-61880000D01*
X112880000Y-61913333D01*
X112913334Y-61980000D01*
X112913334Y-62080000D01*
X112880000Y-62146667D01*
X112846667Y-62180000D01*
X112780000Y-62213333D01*
X112513334Y-62213333D01*
X113580000Y-62546667D02*
X113180000Y-62546667D01*
X113380000Y-62546667D02*
X113380000Y-61846667D01*
X113313334Y-61946667D01*
X113246667Y-62013333D01*
X113180000Y-62046667D01*
X112913334Y-67626667D02*
X112680000Y-67293333D01*
X112513334Y-67626667D02*
X112513334Y-66926667D01*
X112780000Y-66926667D01*
X112846667Y-66960000D01*
X112880000Y-66993333D01*
X112913334Y-67060000D01*
X112913334Y-67160000D01*
X112880000Y-67226667D01*
X112846667Y-67260000D01*
X112780000Y-67293333D01*
X112513334Y-67293333D01*
X113180000Y-66993333D02*
X113213334Y-66960000D01*
X113280000Y-66926667D01*
X113446667Y-66926667D01*
X113513334Y-66960000D01*
X113546667Y-66993333D01*
X113580000Y-67060000D01*
X113580000Y-67126667D01*
X113546667Y-67226667D01*
X113146667Y-67626667D01*
X113580000Y-67626667D01*
X112913334Y-65086667D02*
X112680000Y-64753333D01*
X112513334Y-65086667D02*
X112513334Y-64386667D01*
X112780000Y-64386667D01*
X112846667Y-64420000D01*
X112880000Y-64453333D01*
X112913334Y-64520000D01*
X112913334Y-64620000D01*
X112880000Y-64686667D01*
X112846667Y-64720000D01*
X112780000Y-64753333D01*
X112513334Y-64753333D01*
X113146667Y-64386667D02*
X113580000Y-64386667D01*
X113346667Y-64653333D01*
X113446667Y-64653333D01*
X113513334Y-64686667D01*
X113546667Y-64720000D01*
X113580000Y-64786667D01*
X113580000Y-64953333D01*
X113546667Y-65020000D01*
X113513334Y-65053333D01*
X113446667Y-65086667D01*
X113246667Y-65086667D01*
X113180000Y-65053333D01*
X113146667Y-65020000D01*
X120386667Y-66156667D02*
X120720001Y-66156667D01*
X120320001Y-66356667D02*
X120553334Y-65656667D01*
X120786667Y-66356667D01*
X120920001Y-65656667D02*
X121320001Y-65656667D01*
X121120001Y-66356667D02*
X121120001Y-65656667D01*
X121453334Y-65656667D02*
X121853334Y-65656667D01*
X121653334Y-66356667D02*
X121653334Y-65656667D01*
X122086667Y-66356667D02*
X122086667Y-65656667D01*
X122420000Y-66356667D02*
X122420000Y-65656667D01*
X122820000Y-66356667D01*
X122820000Y-65656667D01*
X123286666Y-66023333D02*
X123286666Y-66356667D01*
X123053333Y-65656667D02*
X123286666Y-66023333D01*
X123519999Y-65656667D01*
M02*
